# xmcd
#
# Track frame offsets: 
#        150
#        2806
#        27149
#        49483
#        52438
#        57280
#        80708
#        85688
#        98341
#        120979
#        125441
#        149633
#        153057
#        175694
#        194683
#        216113
#        222476
#        241012
#        255169
#        267467
#        277336
#        308745
#        333288
#        338285
#
# Disc length: 4696 seconds
#
# Revision: 3
# Processed by: cddbd v1.5.2PL0 Copyright (c) Steve Scherf et al.
# Submitted via: ExactAudioCopy v1.0b3
#
DISCID=56125618
DTITLE=UNKLE - End Titles... Stories For Film (Special Edition)
DYEAR=2008
DGENRE=Electronic
TTITLE0=End Titles
TTITLE1=Cut Me Loose
TTITLE2=Ghosts
TTITLE3=Ghosts (String Reprise)
TTITLE4=Kaned And Abel
TTITLE5=Blade In The Back
TTITLE6=Synthetic Water
TTITLE7=Chemical
TTITLE8=Nocturnal
TTITLE9=Cut Me Loose (String Reprise)
TTITLE10=Against The Grain
TTITLE11=Even Balance (Part Two)
TTITLE12=Trouble In Paradise (Variation On A Theme)
TTITLE13=Can't Hurt
TTITLE14=24 Frames
TTITLE15=In A Broken Dream
TTITLE16=Clouds
TTITLE17=Black Mass
TTITLE18=Open Up Your Eyes
TTITLE19=Romeo Void
TTITLE20=Heaven
TTITLE21=The Piano Echoes
TTITLE22=Dolphinarium
TTITLE23=On The Run
EXTD=
EXTT0=
EXTT1=
EXTT2=
EXTT3=
EXTT4=
EXTT5=
EXTT6=
EXTT7=
EXTT8=
EXTT9=
EXTT10=
EXTT11=
EXTT12=
EXTT13=
EXTT14=
EXTT15=
EXTT16=
EXTT17=
EXTT18=
EXTT19=
EXTT20=
EXTT21=
EXTT22=
EXTT23=
PLAYORDER=
